<?xml version="1.0" encoding="utf-8"?>
<svg version="1.1" id="svglogo"
xmlns="http://www.w3.org/2000/svg" xmlns:xlink="http://www.w3.org/1999/xlink" x="0px" y="0px"
	 viewBox="0 0 274.5 67.4" style="enable-background:new 0 0 274.5 67.4;" xml:space="preserve">
<g class="bit">
	<path d="M7.7,38.9L8 38.5 7.4 38.2 7 38.6 7.3 39.1 z"></path>
</g><g class="j">
	<path d="M20.7,26.5L20.1 26 19.2 25.3 18.3 25 17.3 24.6 16.4 24.5 15.3 24.5 14.4 24.8 13.8 24.9 13 25.2 12.7 25.9 12.3 26.8 11.9 27.8 12 28.9 12.3 29.9 12.7 31.1 13 32.3 13.4 33.1 13.4 34 13.5 34.9 13.9 35.6 13.5 36.5 13.8 37.4 13.6 38.3 13.6 39.5 13.8 40.2 14.1 41.3 14 42.3 14.1 43.3 14.2 44.1 14.4 45.1 14.5 46.1 14.9 47.2 14.7 47.9 14.7 48.8 15 49.8 15 50.8 15.3 51.8 15.4 53.1 15.3 53.9 15 54.8 14.9 55.8 14.6 56.8 14.2 57.8 13.6 59.1 13.2 60 12.4 61.1 11.9 61.6 11.3 62.4 10.4 63.2 9.6 64 8.6 64.5 7.4 65 6.4 65.2 5.7 65 4.8 65 3 64.5 2.7 64.1 2.1 63.7 1.6 63 0.9 62.4 0.4 62.4 0 62.7 0.3 63.4 0.4 63.9 0.8 64.6 1.6 64.6 3 65.5 3.8 65.7 4.7 66.1 5.8 66.1 7 66.2 7.6 65.9 8.4 66 9.6 65.7 10.6 65.2 11.7 64.6 12.7 64.2 13.6 63.5 14.4 63.2 15 62.4 15.9 61.4 16.6 60.7 17.1 59.5 17.7 58.5 18.1 57.2 18.3 56.2 18.3 55.2 18.4 54.4 18.8 53.4 19 52.2 19 51.1 18.7 49.9 18.7 48.6 18.8 47.2 18.9 45.9 19 45.2 18.8 44.6 18.8 43.3 18.9 41.8 18.9 41.1 19 40.1 19 38.5 19.3 37.3 19.3 35.9 19.5 34.8 19.7 33.6 19.9 32.5 20.1 31.3 20.6 30.2 21 29 21.4 28.2 21.2 27.5 z"></path>
</g><g class="jdot">
	<path d="M11.3,18.9L12 19.3 13 19.4 14 19.4 15.2 19.1 17.4 18.4 18.4 18 19.3 17.4 19.3 16.3 19 15.7 18.8 15.1 18.9 14.7 18.7 14.1 18.6 13 18.8 12.2 18.9 11.1 18.9 10.4 18.4 9.8 17.7 9.8 17 10.4 16.4 11.1 15.7 13.1 14.9 14.1 13.8 14.6 12.4 14.9 11.4 15.4 10.7 16.3 10.6 17.3 10.7 18.1 z"></path>
</g><g class="w">
	<path d="M48.9,26.5L48.4 26.6 48 27.3 47.5 27.9 47.2 28.6 46.6 29.4 46.1 30 45.7 31 45.2 32 44.7 32.7 44.2 33.5 44.1 34.3 43.9 35.4 43.4 36.5 43.1 37.5 43 38.6 43 39.6 42.9 40.5 42.7 41.7 42.6 42.5 42.7 43.3 43.1 44.1 43.2 44.9 43.2 45.5 42.8 46.2 42.5 45.9 42.4 45.2 42.2 44.6 42 43.8 41.8 42.8 41.8 42 41.5 41.3 41.2 40.2 40.9 39 40.7 37.6 40.3 36.5 40.1 35.4 39.7 34.3 39.4 33.6 39.4 32.7 39.4 32 39.4 31.2 39.4 30.5 39.1 29.9 38.3 29.9 38 30.2 37.6 30.8 37.4 31.5 37 32.5 36.4 33.6 35.9 34.3 35.3 35.4 34.5 37.5 34.2 38.5 34 39.2 33.7 40 33.2 40.2 32.8 40.5 32.6 40.2 32.6 39.5 32.4 38.7 32.3 38 32.2 37.2 32.2 35.9 32 34.7 32.2 33.5 32 32.5 32 31.5 31.7 30.5 31.3 29.9 31.1 29.3 30.5 28.6 29.8 28.2 28.9 27.7 27.8 27.6 26.9 27.9 26.4 28.4 25.9 29.2 25.9 30.4 26.2 31.1 26.7 31.7 27.2 32.1 27.4 32.7 27.7 33.5 28 34.2 28.2 35.2 28.4 36.2 28.3 37.1 28.4 38 28.6 38.9 29 41.1 29.1 42 29.1 42.9 29.2 44 29.2 44.8 29.5 45.5 29.7 46.8 29.9 47.6 30.1 48.5 30.4 49.2 30.5 49.7 31 50.1 31.6 50.1 32 50 32.7 49.5 33.2 48.8 33.5 47.9 33.8 47 34 45.9 34.3 44.8 34.5 43.8 34.9 42.8 35 41.8 35.3 40.8 35.7 40 36.1 38.9 36.5 38.4 36.6 37.9 36.7 37.2 37 36.5 37.2 35.7 37.6 35.3 38.1 35.6 38.5 36.3 38.8 36.9 38.8 37.6 39.2 38.7 39.4 39.2 39.7 39.8 39.7 40.5 39.9 41.1 40.1 42 40.3 42.8 40.5 43.5 40.7 44.4 41 45.9 41.2 46.6 41.3 47.2 41.8 47.7 41.9 48.6 42.1 49.7 42.5 50.3 43.1 50.3 43.9 50 44.1 49.4 44.2 48.8 44.2 47.7 44.5 46.8 44.5 45.9 44.6 45 45.1 44 45.6 42.9 45.7 41.9 45.8 40.7 45.9 39.4 46 38.3 46.3 37.4 46.3 36.8 46.3 35.7 46.6 34.7 46.7 33.5 47.1 32.3 47.5 31.2 47.8 30.5 48.4 29.7 48.8 28.6 49.1 28.1 49.3 27.5 49 26.8 z"></path>
</g><g class="bit">
	<path d="M45.3,29.4L45.1 29 44.7 29.2 44.7 29.5 45.1 29.7 z"></path>
</g><g class="h">
	<path d="M71.4,45.5L71.2 43.8 71.4 41.8 71.4 40.2 71.3 38.9 71.3 37.4 71.2 35.7 71 33.8 71 32.4 70.7 31 70.3 29 69.8 28.1 68.8 26.6 67.2 25.6 65.8 25.1 64.4 24.9 62.2 24.7 60.2 25.4 59.2 26.7 58.4 27.6 58.4 23.8 58.5 22.1 58.4 20.5 58.4 18.7 58.3 17.1 58 15.8 58.2 14.1 58.2 12.2 58.4 10.8 58.6 9.1 59 7.8 59.4 6.8 59.7 5.9 59.5 4.5 59.1 3.5 58.2 2.4 57.3 1.6 56.1 1.6 54.9 1.4 53.8 1.7 53.2 2.7 52.9 3.3 52.4 3.1 52.1 4 51.3 5.1 51.4 6.1 51.6 7.6 51.9 8.9 51.8 9.6 52.1 10.2 52.3 11.6 52.9 12.8 53 14.1 52.7 14.7 53 15.5 52.9 17.3 52.9 18.7 53.2 20.1 53.4 21.8 53.9 22.7 53.7 24.9 54.1 27.5 54.3 28.2 54.2 29.7 54.3 31.1 54.7 32.5 54.9 33.6 54.9 35.1 55.1 35.9 55.7 38.9 55.9 39.5 55.9 41.1 56.2 42.7 56.3 44.2 56.7 45.4 56.4 46.3 56.8 47.5 56.9 50 57.2 51 56.9 52.1 57.4 52.7 58 53 58.8 52.9 59.2 52.1 59.5 51.5 59.5 50.3 59.5 49.5 59.4 48.2 59.3 47 58.9 44.3 58.9 40.2 59.1 39 59.1 38 59.1 36.7 59.3 35.5 59.6 34.8 59.9 33.6 60.6 31.7 61.5 30.2 62.2 29.8 64 29.5 65 29.5 65.4 29.9 66.4 30.8 66.6 31.8 67.4 33 67.8 33.7 68.5 34.4 68.8 35.3 68.8 36.5 69.1 37.3 68.9 38 69 38.9 69.9 40 69.6 41.2 70 43.9 70.1 45.6 70.5 47.3 70.3 47.9 70.3 48.7 69.4 49.3 70 49.9 70.6 49.9 70.9 49.7 71.5 48.9 71.7 47.8 71.5 46.7 z"></path>
</g><g class="o">
	<path d="M94.9,36.2L94.3 35.4 93.7 34.4 93.2 33.6 92.4 33 91.2 32.3 90.7 31.8 89.8 31.5 89.1 31 88.5 31 88.2 31.5 88.3 32.3 88.8 32.7 89.5 33.2 90.3 33.8 91.1 34.6 91.8 35.5 92.4 36.6 92.7 37.4 92.7 38.9 92.5 40 91.9 41.1 91.1 41.9 89.8 42.8 88.7 43 87.4 43.1 87.2 42.8 86.1 42.8 85.2 42.5 84.4 41.8 83.7 41.2 83.1 40.5 82.6 39.5 82.4 38.4 82.4 37.3 82.4 36 82.8 35.2 83.2 33.8 83.9 33.2 83.9 32.3 84.4 31.3 85 30.5 85.6 29.7 85.7 28.8 85.5 28.1 85.1 27.3 84.4 26.9 83.5 26.7 82.2 27 81.3 27.5 80.4 28.2 79.7 28.7 79.5 29.5 78.8 30.2 78 32.4 77.6 33.8 77.6 35.2 77.3 36.5 77.1 37.5 77.2 38.9 77.3 40 77.8 40.9 78.2 41.9 78.8 42.8 79.6 43.3 80.4 44.3 81.3 45.1 82.2 45.5 83.3 45.9 84.4 46.2 85.8 46.4 87.1 46.3 88.5 46.1 89.8 45.9 91 45.5 92.2 44.9 92.7 44.1 93.6 43.5 94.2 42.5 94.5 41.5 95 40.7 95.3 39.5 95.4 38.3 95.2 37 z"></path>
</g><g class="bit">
	<path d="M88.2,30.5L88.1 30 87.6 29.9 87.3 30.2 87.8 30.6 z"></path>
</g><g class="bit">
	<path d="M110.9,30.5L110.8 30 110.3 29.9 110.1 30.2 110.5 30.6 z"></path>
</g><g class="o2">
	<path d="M117.6,36.2L117.1 35.4 116.4 34.4 115.9 33.6 115.1 33 114 32.3 113.4 31.8 112.5 31.5 111.9 31 111.2 31 110.9 31.5 111.1 32.3 111.6 32.7 112.2 33.2 113.1 33.8 113.9 34.6 114.5 35.5 115.1 36.6 115.5 37.4 115.5 38.9 115.3 40 114.7 41.1 113.9 41.9 112.6 42.8 111.4 43 110.1 43.1 110 42.8 108.8 42.8 107.9 42.5 107.2 41.8 106.4 41.2 105.8 40.5 105.3 39.5 105.1 38.4 105.1 37.3 105.2 36 105.5 35.2 105.9 33.8 106.6 33.2 106.7 32.3 107.1 31.3 107.8 30.5 108.3 29.7 108.4 28.8 108.3 28.1 107.8 27.3 107.1 26.9 106.3 26.7 105 27 104.1 27.5 103.2 28.2 102.4 28.7 102.3 29.5 101.5 30.2 100.8 32.4 100.4 33.8 100.4 35.2 100 36.5 99.8 37.5 99.9 38.9 100 40 100.5 40.9 100.9 41.9 101.5 42.8 102.4 43.3 103.2 44.3 104.1 45.1 105 45.5 106.1 45.9 107.2 46.2 108.6 46.4 109.9 46.3 111.2 46.1 112.6 45.9 113.8 45.5 114.9 44.9 115.5 44.1 116.3 43.5 116.9 42.5 117.3 41.5 117.8 40.7 118 39.5 118.1 38.3 117.9 37 z"></path>
</g><g class="bit">
	<path d="M121.1,37L121.4 37.8 121.9 37.6 122.2 37.1 121.7 36.7 z"></path>
</g><g class="bit">
	<path d="M123.6,53.3L123.2 53 122.7 53.4 123 53.8 123.5 53.9 z"></path>
</g><g class="p">
	<path d="M142,33.6L141.8 32.7 141.5 31.7 141.1 30.5 140.8 29.4 139.6 27.4 138.6 26.6 137.8 26.2 137.1 25.8 135.9 25.4 134.8 25.3 132.2 25.7 131.2 26.2 130.2 26.2 129.9 25.7 129.7 24.5 129.2 23.3 128.1 23 125.9 22.4 124.8 22.4 124 23.2 123.5 23.9 123.5 24.6 123.6 25.2 124 27.3 125.1 29 125.4 29.7 125.4 30.5 125.6 31.4 125.5 32.4 125.1 33.3 124.9 34.1 125.4 34.4 125.7 35.3 125.6 36.1 125.8 37.4 125.6 38.5 125.6 39.8 125.4 41.3 125.7 42.6 125.2 43.6 125 45.7 125.2 47 125.2 47.7 125.2 48.8 125.2 50.3 125.7 51.5 125.3 52.3 125 53.3 124.8 54.4 124.5 55.1 124.1 56.3 123.7 57.2 123.5 57.5 123.6 58.7 123.5 59.7 123.4 60.7 123.4 62.1 123.5 63 123.7 64 124.3 64.8 124.7 64.4 125.4 63.8 125.5 63.1 125.2 62.4 125.2 61.6 125.1 60.3 125.2 59.1 125.3 58 125.6 56.8 125.9 55.4 126.3 54.4 126.7 53.2 126.8 52.2 127.4 50.8 127.5 49.3 127.8 48 127.9 47 128.3 45.5 128.7 43 128.9 42.2 129.2 41.5 129.1 40.7 129.2 39.8 129.2 39 129.4 38 129.4 37 129.6 36.4 130.1 35.9 130.6 35.4 131.2 34.8 131.1 34.2 131.2 33 131.5 32.2 131.9 31.3 132.7 30.5 134 29.5 135 29.5 136 29.7 136.7 29.9 137.4 30.5 137.9 31.1 138.3 31.9 138.7 32.6 138.8 33.6 139.1 34.6 139.6 35.5 139.6 36.4 139.3 38 138.9 39.5 137.8 40.9 137.1 41.6 135.7 42.1 135 42.3 133.9 42.3 132.7 41.6 132.6 40.7 132.6 40 132.2 39.7 131.7 39.7 131.4 40.2 131.3 40.5 131.4 41.2 131.7 41.9 132.2 42.6 132.9 42.8 133.9 43.1 136.2 43.1 137.3 42.8 138.3 42.4 139.2 42 139.8 41.5 140.8 40.7 141.7 38.4 142.1 37.2 142.3 35.9 142.2 34.6 z"></path>
</g><g class="e">
	<path d="M166.6,30.2l-1-0.9l-1.1-0.7l-4.2-2.1l-1.5-0.4l-1.9-0.2l-1.4,0.1h-1.7l-1.3,0.2l-1.1,0.6l-1,0.9l-0.9,1.2l-0.5,0.1
		l-0.6,0.6l-0.3,0.4l-0.4,0.9l-0.4,0.8l-0.3,1.2l-0.3,1.4l-0.1,1.3l0.2,1.2l0.5,1.5l0.8,1.9l0.9,2.1l0.4,0.3l0.6,0.8l0.7,0.7
		l0.9,0.6l1.4,1.2l1.5,1l1.3,0.7l1.6,0.4l1.6,0.1l1.1-0.3l1.1-0.4l1.2-0.6l1.1-0.6l0.6-0.4l0.4-0.4l-0.1-0.3h-0.6l-1,0.2l-1,0.4
		l-0.9,0.1l-1.1,0.3h-1.2l-1-0.4l-0.8-0.4l-1.5-0.8l-0.8-0.7l-1.5-1.7l-0.8-1l-0.4-0.8l-0.1-1.5l0.4-0.8l0.8-0.3l0.9-0.1l1.3,0.1
		l1.7-0.1l1-0.3l1.2-0.4l1.1-0.5l1.5-0.4l1.7-0.1l1.5-0.5l1.2-0.5l1-0.6l0.6-0.9v-1.1l-0.4-1.2L166.6,30.2z M160.7,31.9l-1,0.3
		l-1.2,0.3l-1.3,0.1H156l-1.2-0.3h-1.4l-0.8-0.1l-0.5,0.1l-0.2-0.5l0.6-0.6l0.5-0.3l0.9-0.7l1-0.4l1-0.3h1.1l1.2,0.1l1,0.4l0.9,0.5
		l0.6,0.6L160.7,31.9z"></path>
</g><g class="bit">
	<path d="M163.1,43.9L163.5 44.3 163.9 43.9 163.9 43.5 163.3 43.5 z"></path>
</g><g class="r">
	<path d="M185.9,28.4L185.3 28.4 184.1 28.6 183 28.8 182.1 29.3 181 29.8 180.1 30.4 179.4 31 178.8 31.1 178.4 31 177.9 30.6 177.9 29.2 177.4 28.2 177.3 27.5 176.1 27 175.1 26.9 174 27.4 173.1 27.7 172.5 28.2 172.1 28.8 172 29.7 172 30.6 172.3 31.5 172.8 32.3 173.4 33.3 173.5 34.1 173.6 34.9 173.6 36 173.7 37.3 173.6 38.5 173.5 39.6 173.5 40.6 173.4 41.8 173.3 42.6 173.4 43.4 173.4 45.1 173.5 46.2 173.4 47 173.7 47.7 174 48.4 174.5 49 175.1 49.1 175.7 49 176.6 48.7 177.3 48.1 177.8 47 177.8 46 177.9 44.9 178 43.9 178.3 42.9 178.4 41.9 178.4 39.6 178.4 38.6 178.7 37.6 179 36.8 179.3 36 179.3 34.9 179.6 34.1 180 33.3 181 32.4 181.5 31.8 182.6 31.3 183.2 30.5 184.3 29.9 185.3 29.7 185.9 29.7 186.6 29.8 187.1 29.7 187.1 29.2 186.8 28.6 z"></path>
</g><g class="bit">
	<path d="M197.5,51.6L198 52.1 198.3 51.8 198.3 51.5 197.9 51.3 z"></path>
</g><g class="dot">
	<path d="M199.4,45.1L198.6 44.9 198.3 44.4 197.5 44.1 195.5 44.1 194 44.8 192.4 45.7 191.5 46.5 191.6 47.2 191.8 47.8 191.8 48.3 192 48.8 192.9 49.5 193.1 49.9 193.4 50.9 194 51.4 195 51.6 195.8 51.5 197.2 50.5 197.7 49.7 198 49.5 198.5 48.8 198.8 48.1 200.1 47 200.3 46.2 200.1 45.5 z"></path>
</g><g class="n">
	<path d="M225.4,42.8L225.3 41.8 224.9 40.7 224.7 39.8 224.7 38.7 224.7 37.8 224.4 36.8 224.3 35.7 224.1 34.6 224 33.5 224 32.5 223.6 31.3 223.1 30.5 222.7 29.8 222.6 28.8 222.2 28.1 221.8 27.1 221.3 26.5 220.3 26.2 219.3 26.3 218.1 26.4 217.1 26.7 216.1 27 215.1 27.1 214.4 27.4 213.6 27 213.3 26.2 212.9 25.6 212.2 24.8 211.4 24.3 210.6 23.8 209.6 23.8 208.6 23.8 207.8 24.4 207.4 24.8 207.1 25.5 207 26.2 207.1 27 207.3 27.7 207.6 28.3 208 29 208.3 29.8 208.3 34.3 208.4 35.4 208.4 36.7 208.6 37.8 208.7 38.7 208.7 39.7 208.9 40.9 208.9 42.3 209 43.4 209.1 44.3 209.1 45.1 209.4 47.1 209.6 48.1 210 49.3 210.4 49.7 210.8 50.1 211.4 50.1 212.1 49.9 212.4 49.5 212.8 49.1 212.7 48.2 212.5 47.3 212.2 46.2 212.1 45 212.1 43.7 212.2 42.3 212.3 40.7 212.3 39.4 212.4 38.1 212.7 36.9 213.3 36.1 213.9 35.4 214 34.6 214.3 33.8 214.6 33 215.6 31.7 216.3 30.8 217 30 217.8 29.7 218.9 29.4 219.7 29.7 220.1 30.3 221.1 30.8 221.9 31.5 222.5 33.3 222.7 35.9 223.2 37.6 223.3 38.7 223.6 39.7 223.6 40.6 223.7 41.6 224 42.6 224 43.4 224 44.4 224.2 45 224.9 45.6 225.6 45.7 226 45.4 226.3 45 226.3 44.4 226 43.6 z"></path>
</g><g class="bit">
	<path d="M222.1,46L222.4 46.6 222.7 46.4 223 46 222.7 45.5 z"></path>
</g><g class="e2">
	<path class="e2" d="M251.4,30.2l-1-0.9l-1.1-0.7l-4.2-2.1l-1.5-0.4l-1.9-0.2l-1.4,0.1h-1.7l-1.3,0.2l-1.1,0.6l-1,0.9l-0.9,1.2L234,29l-0.6,0.6
		l-0.3,0.4l-0.4,0.9l-0.4,0.8l-0.3,1.2l-0.3,1.4l-0.1,1.3l0.2,1.2l0.5,1.5l0.8,1.9l0.9,2.1l0.4,0.3l0.6,0.8l0.7,0.7l0.9,0.6l1.4,1.2
		l1.5,1l1.3,0.7l1.6,0.4l1.6,0.1l1.1-0.3l1.1-0.4l1.2-0.6l1.1-0.6l0.6-0.4l0.4-0.4l-0.1-0.3h-0.6l-1,0.2l-1,0.4l-0.9,0.1l-1.1,0.3
		h-1.2l-1-0.4l-0.8-0.4l-1.5-0.8l-0.8-0.7l-1.5-1.7l-0.8-1l-0.4-0.8l-0.1-1.5l0.4-0.8l0.8-0.3l0.9-0.1l1.3,0.1l1.7-0.1l1-0.3
		l1.2-0.4l1.1-0.5l1.5-0.4l1.7-0.1l1.5-0.5l1.2-0.5l1-0.6l0.6-0.9v-1.1L252,31L251.4,30.2z M245.5,31.9l-1,0.3l-1.2,0.3l-1.3,0.1
		h-1.2l-1.2-0.3h-1.4l-0.8-0.1l-0.5,0.1l-0.2-0.5l0.6-0.6l0.5-0.3l0.9-0.7l1-0.4l1-0.3h1.1l1.2,0.1l1,0.4l0.9,0.5l0.6,0.6
		L245.5,31.9z"></path>
</g><g class="bit">
	<path d="M247.9,43.9L248.3 44.3 248.7 43.9 248.6 43.5 248.1 43.5 z"></path>
</g><g class="t"><path d="M273.9,25.5L273.4 25.4 272.4 25.1 271 25.1 270.2 24.9 267.6 24.9 266.6 25.1 265.6 24.8 265 24.4 264.9 23.8 265.2 23.1 265.3 22.2 265.6 21.4 265.7 20.4 265.6 20 265 19.1 264.8 18.5 264.3 17.9 264 17.4 263.2 16.8 262.4 16.5 261.5 16.4 260.4 16.8 259.7 17.6 258.7 18.1 258.3 18.9 258.3 19.7 258.6 20.6 258.7 21.5 258.8 22.5 258.7 24 258.6 25.1 258.7 26.2 258.6 26.8 257.5 26.9 256.6 27 255.6 27.2 254.8 27.1 254.1 27.5 253.7 27.9 253.5 28.6 253.5 29 253.8 29.3 254.3 29.4 255 29.2 255.7 28.7 256.7 28.4 257.6 28.1 258.6 27.9 258.6 32.5 258.3 33.8 258.2 34.9 258.3 36.2 258.4 37.8 258.8 39.2 258.6 40.2 258.7 41.3 258.7 42.7 258.6 44.1 258.8 45 259.1 46.3 259.2 47.6 259.7 48.8 260.8 49.9 261.9 50.3 262.9 50.9 264 51.3 265 51.4 266.7 51.4 267.9 51 268.3 50.4 266.8 50.4 266 50.5 264.7 50 264 49.5 263.5 48.5 263.2 47.9 263 45.5 263.1 44.1 263.2 43.3 263.4 42.3 263.5 40.9 263.4 39.8 263.4 35.3 263.6 34.1 264 32.8 264.2 31.8 264.2 31 264.5 30.4 264.5 29.3 264.5 28.6 264.9 28.1 265.6 27.6 266.6 27.3 267.4 27.5 268.8 27.2 269.9 27.1 270.9 27.1 272 26.9 273 26.8 273.9 26.6 274.4 26.2 274.5 25.7 z"></path>
</g><g class="bit">
	<path d="M272,29.9L272.1 30.6 273 30.8 273.4 30 272.6 29.7 z"></path>
</g>
</svg>

